<svg width="34.000000" height="38.000000" viewBox="0 0 34 38" fill="none" xmlns="http://www.w3.org/2000/svg" xmlns:xlink="http://www.w3.org/1999/xlink">
	<desc>
			Created with Pixso.
	</desc>
	<defs/>
	<path id="Vector" d="M17.79 20.13C20.83 20.65 21.24 22.64 21.49 24.49L21.53 24.81L21.56 25.02L21.71 26.11C22 28.19 22.6 32.51 22.6 34.77C22.6 35.33 22.56 35.76 22.47 36C22.34 36.37 21.94 36.72 21.39 37.01C20.06 37.37 18.67 37.57 17.24 37.57C17.09 37.57 16.94 37.56 16.79 37.55C16.21 37.37 15.78 37.07 15.55 36.66C14.85 35.41 14.81 32.62 14.8 29.37L14.8 28.99L14.79 28.01C14.77 24.57 14.75 21.6 15.88 20.53C16.32 20.12 16.94 19.99 17.79 20.13ZM11.16 27.63C11.81 27.59 12.24 31.18 12.32 33.9C12.38 35.79 12.2 36.57 11.92 36.84C11.59 36.73 11.27 36.6 10.96 36.45C10.75 36.03 10.59 35.37 10.49 34.5C10.17 31.77 10.44 27.68 11.16 27.63ZM27.69 32.99C27.65 33.24 27.59 33.43 27.52 33.59C26.95 34.09 26.36 34.55 25.74 34.97C25.54 35 25.37 34.98 25.28 34.82C24.46 33.22 24.15 28.21 24.95 27.78C25.98 27.23 27.84 32.12 27.69 32.99ZM17 0C26.25 0 33.78 8.1 33.99 18.18L34 18.53L34 18.69C33.98 23.24 32.46 27.41 29.96 30.63C29.87 30.58 29.71 30.42 29.41 29.92C29.1 29.43 26.42 24.88 26.42 19.67C26.42 18.65 27.76 17.05 28.94 15.65C29.82 14.59 30.66 13.6 30.96 12.82C31.36 11.81 31.08 11.1 30.65 10.87C30.26 10.65 29.67 10.81 29.25 11.62C28.57 12.93 28.36 13.18 27.37 14.06C26.39 14.94 24.84 15.82 24.84 14.68C24.84 14.06 25.71 12.66 26.13 11.68C26.57 10.68 26.1 9.97 25.2 9.97C23.43 9.97 22.26 12.45 22.26 13.31C22.26 14.17 22.64 14.29 22.64 15.29C22.64 16.3 20.7 17.61 18.88 17.61C17.12 17.61 16.11 17.22 15.68 16.11L15.63 15.96L15.51 15.56C15.08 14.16 14.77 13.15 14.23 12.09C13.94 11.53 13.5 11.14 13.11 10.8C12.61 10.37 12.35 9.97 12.3 9.68C12.25 9.39 12.22 8.84 13.08 7.56C13.93 6.3 14.05 5.35 13.62 4.85C13.47 4.68 13.2 4.57 12.87 4.57C12.27 4.57 11.43 4.92 10.57 5.88C9.24 7.39 10 8.83 10 9.46C10 10.09 9.75 10.44 8.95 11.3C8.15 12.16 7.87 12.9 7.78 15.86C7.74 17.39 7.5 18.26 7.28 19.04C7.09 19.73 6.92 20.37 6.91 21.3C6.89 22.33 7.05 22.99 7.23 23.75C7.4 24.46 7.59 25.27 7.71 26.62C7.91 28.72 7.84 30.49 7.49 32.3L7.4 32.76L7.37 32.89C7.3 33.2 7.22 33.59 7.1 33.74C2.8 30.36 0 24.84 0 18.61C0 8.33 7.61 0 17 0Z" fill="#FFFFFF" fill-opacity="1.000000" fill-rule="evenodd"/>
</svg>
