<svg width="45.000000" height="45.000000" viewBox="0 0 45 45" fill="none" xmlns="http://www.w3.org/2000/svg" xmlns:xlink="http://www.w3.org/1999/xlink">
	<desc>
			Created with Pixso.
	</desc>
	<defs>
		<clipPath id="clip45_630">
			<rect id="ant-design:close-circle-outlined" width="45.000000" height="45.000000" fill="white" fill-opacity="0"/>
		</clipPath>
	</defs>
	<rect id="ant-design:close-circle-outlined" width="45.000000" height="45.000000" fill="#FFFFFF" fill-opacity="0"/>
	<g clip-path="url(#clip45_630)">
		<path id="Vector" d="M30.12 15.59C30.12 15.39 29.96 15.24 29.76 15.24L26.86 15.25L22.5 20.46L18.13 15.25L15.23 15.24C15.03 15.24 14.87 15.39 14.87 15.59C14.87 15.67 14.91 15.75 14.96 15.82L20.68 22.63L14.96 29.44C14.91 29.5 14.88 29.58 14.87 29.67C14.87 29.86 15.03 30.02 15.23 30.02L18.13 30.01L22.5 24.8L26.86 30L29.76 30.01C29.95 30.01 30.11 29.86 30.11 29.66C30.11 29.58 30.08 29.5 30.03 29.43L24.32 22.63L30.04 15.82C30.09 15.75 30.12 15.67 30.12 15.59Z" fill="#1B1B1B" fill-opacity="1.000000" fill-rule="nonzero"/>
		<path id="Vector" d="M22.5 2.85C11.62 2.85 2.81 11.67 2.81 22.54C2.81 33.41 11.62 42.23 22.5 42.23C33.37 42.23 42.18 33.41 42.18 22.54C42.18 11.67 33.37 2.85 22.5 2.85ZM22.5 38.89C13.47 38.89 6.15 31.57 6.15 22.54C6.15 13.51 13.47 6.19 22.5 6.19C31.52 6.19 38.84 13.51 38.84 22.54C38.84 31.57 31.52 38.89 22.5 38.89Z" fill="#1B1B1B" fill-opacity="1.000000" fill-rule="nonzero"/>
	</g>
</svg>
