<svg width="20.000000" height="15.000000" viewBox="0 0 20 15" fill="none" xmlns="http://www.w3.org/2000/svg" xmlns:xlink="http://www.w3.org/1999/xlink">
	<desc>
			Created with Pixso.
	</desc>
	<defs/>
	<path id="Vector" d="M19.01 3.54C19.38 3.14 19.59 2.61 19.58 2.07C19.57 1.52 19.35 1 18.96 0.61C18.57 0.23 18.05 0 17.51 0C16.96 -0.01 16.43 0.19 16.03 0.56L6.97 9.62L3.54 6.19C3.14 5.81 2.61 5.61 2.07 5.62C1.52 5.63 1 5.85 0.61 6.24C0.23 6.62 0.01 7.15 0 7.69C-0.01 8.24 0.19 8.77 0.56 9.17L5.48 14.09C5.88 14.48 6.41 14.71 6.97 14.71C7.53 14.71 8.07 14.48 8.46 14.09L19.01 3.54Z" fill="#BD7048" fill-opacity="1.000000" fill-rule="evenodd"/>
</svg>
