<svg width="31.711426" height="44.659912" viewBox="0 0 31.7114 44.6599" fill="none" xmlns="http://www.w3.org/2000/svg" xmlns:xlink="http://www.w3.org/1999/xlink">
	<desc>
			Created with Pixso.
	</desc>
	<defs/>
	<path id="Vector" d="M31.0728 21.0835L2.44604 0.297363C2.21631 0.12915 1.94458 0.027832 1.66089 0.00488281C1.3772 -0.0178223 1.09253 0.0383301 0.838867 0.167725C0.585449 0.297119 0.372559 0.494141 0.224365 0.737305C0.076416 0.980469 -0.00146484 1.26001 0 1.54468L0 43.1169C0 44.3833 1.43091 45.0989 2.44604 44.364L31.0728 23.5779C31.2705 23.4355 31.4314 23.248 31.5425 23.0312C31.6536 22.8145 31.7114 22.5742 31.7114 22.3308C31.7114 22.0872 31.6536 21.8469 31.5425 21.6301C31.4314 21.4133 31.2705 21.2261 31.0728 21.0835ZM6.16821 34.0386L6.16821 10.6228L22.2847 22.3308L6.16821 34.0386Z" fill="#FFFFFF" fill-opacity="1.000000" fill-rule="nonzero"/>
</svg>
